<?xml version="1.0" standalone="no"?>
<!DOCTYPE svg PUBLIC "-//W3C//DTD SVG 20010904//EN"
 "http://www.w3.org/TR/2001/REC-SVG-20010904/DTD/svg10.dtd">
<svg version="1.0" xmlns="http://www.w3.org/2000/svg"
 width="2500.000000pt" height="2066.000000pt" viewBox="0 0 2500.000000 2066.000000"
 preserveAspectRatio="xMidYMid meet">

<g transform="translate(0.000000,2066.000000) scale(0.100000,-0.100000)"
fill="#bc48ff" stroke="none">
<path d="M22805 20000 c-3 -5 -28 -10 -56 -10 -37 0 -49 -4 -49 -15 0 -10 -10
-15 -29 -15 -16 0 -31 -6 -35 -15 -3 -8 -12 -15 -21 -15 -8 0 -15 -4 -15 -10
0 -5 -9 -10 -20 -10 -11 0 -23 -7 -26 -15 -4 -8 -12 -15 -20 -15 -8 0 -14 -6
-14 -12 -1 -7 -14 -24 -30 -38 -17 -13 -30 -30 -30 -38 0 -7 -7 -20 -15 -28
-8 -9 -15 -24 -15 -35 0 -10 -4 -19 -10 -19 -5 0 -10 -18 -10 -39 0 -25 -5
-41 -15 -45 -12 -4 -15 -25 -15 -100 0 -98 -6 -130 -21 -120 -5 3 -9 -57 -9
-140 0 -80 -4 -146 -9 -146 -5 0 -11 -32 -13 -72 -2 -44 -9 -73 -16 -76 -8 -2
-12 -26 -12 -67 0 -47 -4 -64 -15 -69 -11 -4 -15 -21 -15 -64 0 -41 -5 -64
-15 -72 -8 -7 -15 -28 -15 -46 0 -19 -4 -34 -10 -34 -5 0 -10 -25 -10 -55 0
-41 -4 -55 -15 -55 -10 0 -15 -16 -17 -62 -2 -44 -7 -62 -15 -60 -9 1 -13 -15
-13 -58 0 -47 -3 -60 -15 -60 -12 0 -15 -13 -15 -55 0 -30 -4 -55 -10 -55 -5
0 -10 -15 -10 -34 0 -19 -7 -41 -15 -50 -8 -8 -15 -29 -15 -46 0 -17 -7 -38
-15 -46 -8 -9 -15 -33 -15 -55 0 -21 -4 -39 -10 -39 -5 0 -10 -18 -10 -40 0
-27 -5 -43 -15 -46 -10 -4 -15 -20 -15 -44 0 -24 -5 -40 -15 -44 -8 -3 -15
-16 -15 -30 0 -13 -7 -26 -15 -30 -9 -3 -15 -19 -15 -41 0 -19 -4 -35 -10 -35
-5 0 -12 -11 -16 -25 -3 -14 -10 -25 -15 -25 -5 0 -9 -13 -9 -29 0 -16 -6 -31
-15 -35 -8 -3 -15 -12 -15 -20 0 -17 -32 -79 -42 -84 -5 -2 -8 -14 -8 -27 0
-12 -7 -25 -15 -29 -8 -3 -15 -15 -15 -26 0 -11 -6 -20 -13 -20 -6 0 -18 -13
-25 -30 -8 -16 -20 -30 -28 -30 -8 0 -14 -5 -14 -10 0 -6 -10 -15 -22 -20 -28
-12 -57 -31 -76 -47 -7 -7 -20 -13 -28 -13 -8 0 -14 -4 -14 -10 0 -5 -8 -10
-19 -10 -10 0 -24 -7 -31 -15 -7 -8 -21 -15 -31 -15 -11 0 -19 -4 -19 -9 0 -5
-13 -12 -30 -16 -16 -4 -30 -11 -30 -16 0 -5 -9 -9 -19 -9 -11 0 -26 -7 -35
-15 -8 -8 -23 -15 -33 -15 -10 0 -27 -7 -37 -15 -11 -8 -30 -15 -42 -15 -12 0
-27 -7 -34 -15 -7 -8 -23 -15 -36 -15 -12 0 -26 -4 -29 -10 -3 -5 -19 -10 -34
-10 -15 0 -36 -7 -47 -15 -10 -8 -32 -15 -49 -15 -16 0 -41 -7 -55 -15 -14 -8
-42 -14 -62 -15 -20 0 -39 -4 -43 -9 -3 -5 -31 -12 -63 -16 -31 -4 -68 -10
-82 -15 -14 -5 -52 -10 -85 -11 -33 -2 -80 -9 -104 -16 -63 -19 -581 -18 -671
2 -132 28 -1031 27 -1099 -1 -18 -8 -54 -14 -80 -14 -25 -1 -57 -7 -71 -15
-14 -8 -42 -14 -62 -15 -20 0 -40 -4 -43 -10 -3 -5 -16 -10 -28 -10 -12 0 -35
-7 -51 -15 -15 -8 -38 -15 -51 -15 -12 0 -28 -7 -35 -15 -7 -8 -25 -15 -41
-15 -16 0 -29 -4 -29 -10 0 -5 -12 -13 -27 -16 -16 -4 -32 -10 -38 -14 -5 -4
-22 -10 -37 -14 -16 -3 -28 -11 -28 -16 0 -6 -11 -10 -24 -10 -13 0 -29 -7
-36 -15 -7 -8 -21 -15 -31 -15 -11 0 -19 -4 -19 -8 0 -5 -21 -18 -47 -30 -27
-12 -61 -31 -78 -42 -16 -11 -39 -24 -50 -29 -32 -14 -65 -50 -59 -64 2 -6 24
-20 47 -30 23 -10 57 -25 75 -33 17 -8 47 -20 65 -28 17 -8 57 -26 87 -40 30
-14 60 -26 66 -26 7 0 17 -7 24 -15 7 -8 22 -15 34 -15 11 0 30 -7 40 -15 11
-8 28 -15 38 -15 10 0 18 -4 18 -10 0 -5 8 -10 18 -10 10 0 27 -7 38 -15 10
-8 29 -15 42 -15 12 0 22 -4 22 -10 0 -5 12 -13 28 -16 15 -4 32 -10 37 -14 6
-4 22 -10 38 -14 15 -3 27 -11 27 -16 0 -6 7 -10 16 -10 9 0 29 -7 45 -15 16
-8 42 -22 58 -30 16 -8 36 -15 45 -15 9 0 16 -4 16 -9 0 -5 14 -12 30 -16 17
-4 30 -11 30 -16 0 -5 11 -9 24 -9 13 0 29 -7 36 -15 7 -8 20 -15 30 -15 10 0
23 -7 30 -15 7 -8 21 -15 31 -15 11 0 19 -4 19 -10 0 -5 8 -10 19 -10 10 0 24
-7 31 -15 7 -8 20 -15 30 -15 10 0 23 -7 30 -15 7 -8 21 -15 31 -15 11 0 19
-4 19 -8 0 -5 22 -18 49 -30 27 -12 52 -26 56 -32 3 -5 15 -10 26 -10 10 0 19
-4 19 -9 0 -5 10 -13 22 -17 12 -3 28 -12 35 -18 14 -13 23 -20 83 -66 51 -39
92 -80 135 -135 17 -21 36 -44 43 -51 6 -7 12 -17 12 -23 0 -6 4 -11 9 -11 5
0 11 -8 15 -17 3 -10 10 -26 16 -35 24 -41 30 -54 36 -68 3 -8 12 -29 20 -47
8 -17 14 -47 14 -66 0 -20 5 -39 10 -42 6 -3 10 -23 10 -44 0 -20 7 -46 15
-57 8 -10 15 -31 15 -46 0 -14 6 -39 14 -55 8 -15 29 -59 47 -98 18 -38 35
-72 39 -75 3 -3 19 -23 35 -45 15 -22 49 -59 74 -83 l46 -43 -68 -62 c-38 -34
-143 -131 -233 -215 -165 -154 -165 -154 -187 -135 -55 46 -123 133 -143 183
-3 8 -12 29 -20 47 -8 17 -14 36 -14 42 0 6 -4 19 -9 29 -12 24 -31 98 -40
157 -5 28 -13 63 -19 78 -7 16 -12 50 -12 77 0 27 -4 51 -9 54 -4 3 -11 24
-15 46 -3 23 -10 49 -15 58 -5 9 -19 39 -32 65 -37 76 -46 89 -82 127 -50 52
-84 78 -128 102 -21 11 -42 24 -45 29 -3 5 -13 9 -23 9 -10 0 -24 7 -31 15 -7
8 -21 15 -31 15 -11 0 -19 5 -19 10 0 6 -7 10 -16 10 -14 0 -48 15 -94 41 -8
5 -22 12 -30 15 -31 12 -85 39 -90 45 -3 3 -17 9 -32 13 -16 3 -28 11 -28 16
0 6 -11 10 -24 10 -13 0 -29 7 -36 15 -7 8 -21 15 -30 15 -10 0 -20 3 -22 8
-4 8 -63 38 -95 47 -13 3 -23 11 -23 16 0 5 -8 9 -17 9 -10 0 -27 7 -37 15
-11 8 -28 15 -38 15 -10 0 -18 4 -18 9 0 5 -13 12 -30 16 -16 4 -32 11 -35 16
-4 5 -14 9 -24 9 -10 0 -24 7 -31 15 -7 8 -23 15 -36 15 -13 0 -24 4 -24 10 0
5 -16 12 -35 16 -19 3 -35 10 -35 15 0 5 -10 9 -23 9 -13 0 -32 7 -43 15 -10
8 -29 15 -40 15 -12 0 -27 7 -34 15 -7 8 -23 15 -35 15 -13 0 -36 7 -51 15
-16 8 -39 15 -51 15 -12 0 -25 5 -28 10 -3 6 -18 10 -33 10 -15 0 -40 7 -56
15 -15 8 -39 15 -53 15 -13 0 -34 5 -46 12 -22 12 -59 19 -186 38 -36 5 -69
14 -75 20 -5 5 -39 10 -75 10 -37 1 -84 7 -106 15 -59 22 -669 21 -739 0 -27
-8 -75 -15 -106 -15 -31 0 -60 -4 -66 -9 -8 -8 -52 -18 -187 -40 -26 -4 -53
-13 -59 -19 -7 -7 -28 -12 -47 -12 -20 0 -45 -7 -55 -15 -11 -8 -32 -15 -47
-15 -15 0 -31 -4 -34 -10 -3 -5 -16 -10 -29 -10 -12 0 -31 -7 -42 -15 -10 -8
-28 -15 -40 -15 -11 0 -29 -7 -40 -15 -10 -8 -29 -15 -40 -15 -12 0 -27 -7
-34 -15 -7 -8 -23 -15 -36 -15 -13 0 -24 -4 -24 -10 0 -5 -7 -10 -16 -10 -14
0 -48 -15 -94 -41 -8 -5 -22 -12 -30 -15 -39 -15 -85 -40 -88 -46 -2 -5 -12
-8 -22 -8 -9 0 -23 -7 -30 -15 -7 -8 -18 -15 -25 -15 -7 0 -18 -7 -25 -15 -7
-8 -21 -15 -31 -15 -11 0 -19 -4 -19 -10 0 -5 -11 -12 -25 -16 -14 -3 -25 -10
-25 -14 0 -4 -8 -10 -17 -14 -10 -3 -31 -15 -48 -26 -16 -11 -38 -23 -47 -26
-10 -4 -18 -10 -18 -15 0 -5 -5 -9 -11 -9 -6 0 -28 -13 -49 -30 -21 -16 -41
-30 -45 -30 -3 0 -13 -6 -20 -12 -34 -30 -45 -38 -55 -38 -6 0 -13 -7 -16 -15
-4 -8 -11 -15 -16 -15 -9 0 -56 -34 -105 -75 -7 -5 -19 -16 -27 -22 -8 -7 -20
-13 -26 -13 -5 0 -10 -4 -10 -9 0 -4 -17 -20 -39 -34 -21 -14 -50 -36 -64 -49
-36 -33 -66 -58 -117 -98 -24 -19 -62 -52 -82 -72 -21 -21 -40 -38 -42 -38
-18 0 -536 -517 -536 -535 0 -3 -17 -22 -38 -43 -21 -21 -64 -71 -97 -112 -62
-77 -101 -123 -122 -146 -7 -7 -13 -17 -13 -22 0 -6 -4 -12 -9 -14 -5 -1 -38
-41 -72 -88 -35 -47 -67 -89 -71 -95 -31 -39 -148 -206 -148 -212 0 -5 -14
-23 -30 -42 -17 -18 -30 -38 -30 -43 0 -5 -5 -14 -11 -21 -20 -23 -99 -149
-99 -158 0 -5 -4 -9 -8 -9 -5 0 -19 -21 -33 -46 -29 -55 -38 -70 -64 -109 -31
-47 -45 -69 -52 -85 -3 -8 -19 -31 -35 -51 -15 -20 -28 -40 -28 -43 0 -4 -18
-35 -40 -70 -22 -35 -40 -68 -40 -75 0 -6 -4 -11 -8 -11 -5 0 -19 -21 -33 -46
-30 -58 -39 -72 -65 -109 -11 -17 -24 -37 -27 -45 -4 -8 -17 -31 -28 -50 -12
-19 -44 -73 -72 -120 -28 -47 -53 -87 -56 -90 -6 -5 -15 -20 -52 -88 -11 -20
-29 -50 -40 -67 -10 -16 -23 -39 -29 -50 -6 -11 -24 -42 -41 -70 -16 -27 -33
-58 -36 -67 -3 -10 -9 -18 -13 -18 -5 0 -12 -10 -16 -22 -8 -27 -65 -122 -76
-126 -4 -2 -8 -12 -8 -22 0 -10 -4 -21 -9 -24 -5 -3 -18 -24 -29 -45 -33 -62
-46 -86 -54 -91 -4 -3 -12 -17 -18 -30 -5 -14 -24 -47 -40 -75 -17 -27 -35
-59 -40 -70 -6 -11 -19 -33 -30 -50 -11 -16 -29 -48 -40 -70 -11 -22 -29 -53
-40 -70 -11 -16 -24 -39 -30 -50 -5 -11 -23 -42 -40 -70 -16 -27 -34 -60 -39
-72 -5 -11 -15 -24 -20 -28 -6 -3 -11 -15 -11 -26 0 -10 -4 -19 -8 -19 -5 0
-16 -18 -26 -40 -10 -22 -23 -46 -29 -53 -7 -6 -21 -30 -32 -52 -11 -22 -22
-42 -25 -45 -3 -3 -11 -16 -17 -30 -7 -14 -26 -47 -42 -75 -17 -27 -40 -68
-51 -90 -11 -22 -25 -47 -30 -55 -25 -40 -88 -149 -105 -185 -11 -22 -23 -42
-26 -45 -4 -3 -9 -15 -13 -27 -4 -13 -12 -23 -17 -23 -5 0 -9 -6 -9 -14 0 -8
-6 -21 -12 -28 -7 -7 -22 -31 -33 -53 -11 -22 -30 -54 -42 -71 -13 -17 -23
-36 -23 -41 0 -6 -7 -16 -15 -23 -8 -7 -15 -18 -15 -25 0 -7 -18 -39 -39 -71
-21 -33 -49 -77 -61 -99 -12 -22 -30 -53 -41 -70 -10 -16 -22 -37 -25 -45 -4
-8 -17 -28 -29 -45 -12 -16 -25 -37 -28 -45 -4 -8 -21 -37 -38 -65 -16 -27
-33 -58 -36 -67 -3 -9 -11 -19 -19 -22 -8 -3 -14 -10 -14 -16 0 -9 -58 -109
-69 -120 -8 -7 -29 -41 -38 -60 -4 -8 -13 -21 -20 -28 -7 -7 -13 -20 -13 -28
0 -8 -4 -14 -10 -14 -5 0 -10 -7 -10 -15 0 -8 -4 -15 -9 -15 -5 0 -13 -10 -17
-22 -3 -12 -12 -28 -18 -35 -23 -26 -33 -40 -81 -118 -27 -44 -53 -81 -57 -83
-4 -2 -8 -8 -8 -14 0 -6 -13 -27 -30 -48 -17 -21 -30 -41 -30 -44 0 -3 -12
-24 -28 -45 -15 -21 -34 -49 -42 -61 -8 -12 -21 -28 -27 -36 -7 -7 -13 -16
-13 -19 0 -7 -57 -91 -75 -111 -5 -6 -23 -32 -39 -57 -17 -26 -34 -47 -38 -47
-4 0 -8 -5 -8 -10 0 -6 -38 -62 -85 -125 -47 -63 -85 -119 -85 -124 0 -5 -3
-11 -8 -13 -12 -5 -72 -85 -72 -96 0 -6 -4 -12 -8 -14 -5 -1 -31 -32 -58 -68
-26 -36 -51 -67 -54 -70 -3 -3 -28 -34 -55 -70 -55 -72 -57 -75 -85 -109 -11
-13 -48 -60 -83 -104 -34 -44 -74 -92 -88 -107 -14 -15 -46 -54 -71 -86 -25
-33 -56 -70 -70 -84 -13 -14 -63 -70 -110 -125 -47 -55 -103 -118 -124 -141
-22 -22 -75 -81 -119 -129 -90 -100 -508 -520 -602 -605 -33 -30 -98 -89 -143
-130 -126 -114 -128 -116 -172 -152 -23 -18 -52 -42 -64 -53 -36 -33 -67 -58
-114 -95 -25 -19 -47 -38 -50 -41 -3 -4 -34 -28 -70 -55 -36 -26 -69 -53 -73
-61 -4 -7 -12 -13 -18 -13 -5 0 -22 -11 -37 -25 -15 -14 -32 -25 -39 -25 -6 0
-13 -4 -15 -9 -4 -11 -125 -101 -136 -101 -4 0 -19 -11 -34 -25 -15 -14 -30
-25 -34 -25 -3 0 -23 -13 -44 -30 -21 -16 -43 -30 -49 -30 -6 0 -11 -3 -11 -8
0 -4 -20 -18 -45 -32 -25 -14 -45 -28 -45 -31 0 -4 -8 -9 -17 -13 -10 -3 -31
-15 -48 -26 -16 -11 -38 -23 -47 -26 -10 -4 -18 -10 -18 -14 0 -4 -8 -10 -17
-14 -10 -3 -31 -15 -48 -26 -16 -11 -39 -24 -50 -30 -11 -5 -42 -23 -70 -39
-27 -16 -70 -40 -95 -53 -25 -13 -46 -26 -48 -30 -2 -5 -12 -8 -22 -8 -9 0
-23 -7 -30 -15 -7 -8 -20 -15 -30 -15 -10 0 -23 -7 -30 -15 -7 -8 -21 -15 -31
-15 -11 0 -19 -4 -19 -8 0 -5 -19 -16 -42 -26 -24 -9 -50 -21 -58 -27 -8 -5
-22 -12 -30 -15 -8 -3 -44 -20 -80 -37 -74 -34 -96 -43 -127 -52 -13 -4 -23
-11 -23 -16 0 -5 -10 -9 -22 -9 -13 0 -32 -7 -42 -15 -11 -8 -30 -15 -43 -15
-13 0 -23 -4 -23 -10 0 -5 -10 -10 -23 -10 -13 0 -32 -7 -43 -15 -10 -8 -28
-15 -39 -15 -11 0 -29 -7 -39 -15 -11 -8 -31 -15 -44 -15 -13 0 -30 -7 -38
-15 -9 -8 -28 -15 -44 -15 -16 0 -31 -4 -34 -9 -4 -5 -24 -12 -46 -16 -22 -4
-42 -11 -46 -16 -3 -5 -18 -9 -33 -9 -15 0 -36 -7 -47 -15 -10 -8 -33 -15 -50
-15 -18 0 -45 -7 -60 -15 -16 -8 -41 -15 -56 -15 -15 0 -30 -4 -33 -10 -3 -6
-21 -10 -38 -10 -18 0 -45 -7 -61 -15 -15 -8 -45 -15 -66 -15 -21 0 -51 -7
-66 -15 -16 -8 -49 -15 -75 -15 -25 0 -50 -5 -56 -11 -10 -10 -72 -20 -253
-39 -47 -4 -98 -13 -113 -19 -16 -6 -63 -11 -105 -11 -42 0 -115 -7 -162 -15
-66 -12 -168 -15 -450 -14 -201 0 -390 5 -420 10 -30 5 -111 13 -180 17 -69 4
-131 11 -138 15 -7 5 -56 13 -110 18 -202 19 -248 26 -269 37 -12 7 -46 12
-75 12 -32 0 -62 6 -74 15 -11 8 -41 15 -69 15 -28 0 -55 4 -60 9 -6 6 -35 14
-65 20 -30 5 -84 17 -120 26 -36 9 -105 20 -155 24 -49 5 -112 14 -140 20 -34
9 -151 13 -360 13 -266 1 -316 -2 -349 -16 -21 -9 -53 -16 -71 -16 -18 0 -46
-7 -61 -15 -16 -8 -39 -15 -51 -15 -12 0 -24 -4 -28 -9 -3 -5 -19 -12 -35 -16
-17 -4 -30 -11 -30 -16 0 -5 -8 -9 -19 -9 -10 0 -24 -7 -31 -15 -7 -8 -17 -15
-22 -15 -12 0 -108 -72 -137 -103 -26 -29 -35 -44 -70 -114 -13 -26 -27 -56
-32 -65 -5 -10 -9 -36 -9 -58 0 -22 -4 -40 -10 -40 -6 0 -10 -28 -10 -65 0
-37 4 -65 10 -65 6 0 10 -22 10 -49 0 -27 7 -62 15 -77 8 -16 15 -37 15 -47 0
-17 3 -24 33 -85 9 -19 17 -39 17 -47 0 -7 7 -18 15 -25 8 -7 15 -21 15 -31 0
-11 5 -19 10 -19 6 0 10 -6 10 -13 0 -8 13 -32 29 -54 16 -22 32 -49 35 -61 4
-12 12 -22 17 -22 5 0 9 -5 9 -12 0 -6 18 -35 40 -64 22 -29 40 -57 40 -63 0
-5 4 -11 8 -13 5 -2 31 -32 57 -68 27 -36 53 -69 60 -75 6 -5 33 -37 59 -70
67 -83 175 -202 272 -299 117 -117 278 -266 288 -266 3 0 18 -12 33 -26 15
-15 64 -54 108 -87 44 -34 81 -65 83 -69 2 -4 10 -8 18 -8 8 0 17 -7 20 -15 4
-8 10 -15 15 -15 5 0 43 -25 84 -55 40 -30 76 -55 79 -55 6 0 98 -62 106 -71
3 -3 12 -9 20 -12 8 -4 29 -16 45 -27 17 -11 38 -23 48 -26 9 -4 17 -10 17
-14 0 -4 11 -11 25 -14 14 -4 25 -11 25 -16 0 -6 8 -10 19 -10 10 0 24 -7 31
-15 7 -8 19 -15 26 -15 8 0 14 -4 14 -9 0 -5 10 -13 23 -17 12 -4 24 -9 27
-13 3 -3 25 -16 50 -29 25 -12 52 -27 60 -32 8 -4 32 -16 52 -24 20 -9 40 -21
43 -26 3 -6 14 -10 24 -10 10 0 24 -7 31 -15 7 -8 20 -15 30 -15 10 0 23 -7
30 -15 7 -8 21 -15 31 -15 11 0 19 -4 19 -9 0 -5 13 -12 30 -16 17 -4 30 -11
30 -16 0 -5 7 -9 16 -9 9 0 28 -6 42 -14 15 -7 45 -22 67 -31 22 -10 48 -22
57 -26 10 -5 24 -9 32 -9 7 0 19 -7 26 -15 7 -8 23 -15 35 -15 12 0 28 -7 35
-15 7 -8 21 -15 30 -15 10 0 33 -8 52 -17 61 -31 68 -33 87 -33 10 0 24 -7 31
-15 7 -8 25 -15 40 -15 15 0 33 -7 40 -15 7 -8 23 -15 36 -15 12 0 26 -5 29
-10 3 -5 14 -10 23 -10 9 0 30 -7 46 -15 15 -8 36 -15 45 -15 10 0 26 -7 37
-15 10 -8 30 -15 44 -15 14 0 34 -7 44 -15 11 -8 30 -15 42 -15 12 0 35 -7 50
-15 16 -8 39 -15 51 -15 12 0 25 -5 28 -10 3 -5 19 -10 34 -10 15 0 36 -7 47
-15 10 -8 33 -15 49 -15 17 0 39 -7 49 -15 11 -8 32 -15 47 -15 15 0 31 -4 34
-10 3 -5 18 -10 33 -10 15 0 40 -7 56 -15 15 -8 39 -15 51 -15 12 0 36 -7 51
-15 16 -8 41 -15 55 -15 15 0 40 -7 55 -15 16 -8 41 -15 56 -15 15 0 30 -4 33
-10 3 -5 23 -10 44 -10 20 0 46 -7 57 -15 10 -8 35 -15 55 -15 19 0 44 -7 55
-15 10 -8 38 -15 61 -15 23 0 44 -4 48 -9 3 -5 30 -13 60 -16 31 -4 58 -11 61
-16 3 -5 22 -9 42 -9 20 0 50 -7 66 -15 15 -8 45 -15 66 -15 21 0 51 -7 66
-15 16 -8 46 -15 66 -15 20 0 39 -4 42 -9 3 -4 31 -11 62 -14 31 -3 62 -11 67
-16 6 -6 29 -11 52 -11 22 0 53 -7 69 -15 15 -8 45 -15 66 -15 21 0 51 -7 66
-15 16 -8 48 -15 71 -15 23 0 44 -4 47 -9 3 -5 35 -12 71 -16 36 -3 67 -11 70
-16 4 -5 29 -9 56 -9 28 0 60 -5 72 -12 12 -7 47 -16 77 -20 30 -4 93 -14 140
-23 47 -9 118 -20 159 -25 40 -5 78 -13 84 -19 6 -6 37 -11 68 -11 31 0 76 -7
99 -15 23 -8 66 -15 96 -15 29 0 63 -5 76 -10 23 -10 136 -25 308 -39 52 -4
108 -13 123 -19 16 -7 64 -12 107 -12 43 0 91 -5 107 -11 15 -6 75 -15 133
-20 58 -4 166 -16 240 -24 74 -9 189 -19 255 -21 66 -3 124 -9 130 -15 12 -12
738 -12 750 0 6 6 80 12 165 14 200 6 625 32 637 40 5 3 63 7 129 8 67 1 139
7 164 15 25 8 82 14 128 14 46 0 93 5 105 11 11 7 60 16 107 20 139 13 240 28
260 39 10 6 39 10 63 10 25 0 64 7 87 15 23 8 64 15 90 15 26 0 61 7 76 15 16
8 50 15 76 15 26 0 49 4 52 9 3 5 35 12 71 16 36 3 67 11 70 16 4 5 29 9 56 9
28 0 60 5 72 12 12 7 45 15 72 19 81 13 173 33 181 42 4 4 26 7 48 7 23 0 54
7 70 15 15 8 45 15 65 15 20 0 45 7 55 15 11 8 38 15 60 15 23 0 50 7 60 15
11 8 37 15 57 15 21 0 41 5 44 10 3 6 23 10 43 10 20 1 48 7 62 15 14 8 39 15
55 15 17 0 41 7 55 15 14 8 39 14 57 15 17 0 35 4 38 10 3 5 18 10 33 10 15 0
40 7 56 15 15 8 43 15 60 15 18 0 41 7 52 15 10 8 33 15 49 15 17 0 39 7 49
15 11 8 32 15 47 15 15 0 31 5 34 10 3 6 18 10 33 10 15 0 40 7 56 15 15 8 40
15 55 15 14 0 35 7 45 15 11 8 30 15 42 15 12 0 35 7 50 15 16 8 39 15 51 15
12 0 25 5 28 10 3 6 19 10 34 10 15 0 36 7 47 15 10 8 30 15 44 15 14 0 34 7
44 15 11 8 30 15 42 15 12 0 35 7 50 15 16 8 37 15 46 15 9 0 20 5 23 10 3 6
18 10 33 10 15 0 36 7 46 15 11 8 29 15 40 15 12 0 30 7 40 15 11 8 29 15 40
15 12 0 30 7 40 15 11 8 30 15 42 15 13 0 26 5 29 10 3 6 16 10 29 10 12 0 31
7 42 15 10 8 28 15 39 15 11 0 29 7 39 15 11 8 28 15 38 15 18 0 25 3 86 33
19 9 44 17 57 17 12 0 28 7 35 15 7 8 23 15 35 15 12 0 28 7 35 15 7 8 21 15
31 15 19 0 26 2 87 33 19 9 42 17 52 17 9 0 23 7 30 15 7 8 23 15 36 15 12 0
25 4 29 9 3 5 19 12 35 16 17 4 30 11 30 16 0 5 11 9 24 9 13 0 29 7 36 15 7
8 23 15 35 15 12 0 28 7 35 15 7 8 23 15 36 15 13 0 24 4 24 9 0 5 13 12 30
16 16 4 32 11 35 16 4 5 14 9 24 9 10 0 24 7 31 15 7 8 20 15 28 15 9 0 55 18
102 41 47 23 101 48 120 57 19 8 42 19 50 24 8 4 22 11 30 14 8 3 38 17 65 30
28 13 55 24 61 24 7 0 17 7 24 15 7 8 21 15 31 15 11 0 19 4 19 9 0 5 14 12
30 16 17 4 30 11 30 16 0 5 8 9 19 9 10 0 24 7 31 15 7 8 20 15 30 15 10 0 23
7 30 15 7 8 21 15 31 15 11 0 19 4 19 9 0 5 14 12 30 16 17 4 30 11 30 16 0 5
8 9 19 9 10 0 24 7 31 15 7 8 21 15 31 15 11 0 19 4 19 9 0 5 12 14 28 20 23
9 53 24 122 62 8 5 35 19 60 31 25 13 47 26 50 29 3 4 15 9 28 13 12 4 22 12
22 17 0 5 8 9 19 9 10 0 24 7 31 15 7 8 18 15 25 15 7 0 18 7 25 15 7 8 21 15
31 15 11 0 19 4 19 9 0 5 11 12 25 15 14 4 25 11 25 16 0 6 8 10 18 10 10 0
23 5 29 11 12 12 34 25 98 59 22 11 54 30 70 40 17 11 38 23 48 26 9 4 17 10
17 14 0 4 11 11 25 14 14 4 25 11 25 16 0 6 6 10 14 10 7 0 19 7 26 15 7 8 21
15 31 15 11 0 19 4 19 9 0 5 20 20 45 32 25 12 45 26 45 31 0 4 9 8 20 8 10 0
23 6 27 13 8 12 24 22 94 59 21 11 39 24 39 29 0 5 9 9 19 9 10 0 21 7 25 15
3 8 10 15 15 15 5 0 46 25 91 55 45 30 85 55 90 55 4 0 13 6 19 14 7 8 27 22
46 31 19 9 35 20 35 25 0 6 4 10 10 10 8 0 96 56 110 70 7 7 43 29 60 37 8 4
20 12 26 17 6 6 20 17 30 24 11 6 48 32 84 57 36 25 73 51 84 57 10 7 24 19
32 26 7 6 15 12 18 12 10 0 391 282 394 291 2 5 9 9 16 9 7 0 26 13 42 30 16
16 34 30 41 30 6 0 13 4 15 8 2 4 32 30 68 57 36 27 70 54 77 60 7 5 19 16 27
22 8 7 20 13 26 13 5 0 10 4 10 9 0 4 17 20 38 34 20 14 51 37 67 52 60 53 75
65 80 65 3 0 13 8 23 17 17 16 41 36 136 113 17 14 36 29 42 35 6 5 29 25 52
43 23 19 51 43 64 54 13 11 43 36 67 56 24 21 56 48 70 62 14 14 39 36 55 48
25 20 95 80 201 177 18 17 58 52 89 79 30 26 80 71 110 100 30 28 105 98 167
156 202 188 570 550 701 691 18 20 74 79 123 131 130 137 287 307 326 352 19
22 45 52 59 66 32 34 138 154 176 199 16 19 36 41 44 50 8 9 44 50 79 91 35
41 68 77 72 78 5 2 9 10 9 17 0 7 4 15 8 17 4 2 38 39 76 83 38 44 88 103 112
130 23 28 57 70 75 95 18 25 35 47 39 50 3 3 28 34 55 70 27 36 54 70 60 76 5
6 17 22 25 34 8 12 20 28 25 34 10 11 100 142 120 174 6 10 12 19 15 22 21 21
180 276 180 289 0 5 7 11 15 15 8 3 15 14 15 24 0 11 7 25 15 32 8 7 15 18 15
25 0 8 3 15 8 17 7 3 31 45 84 148 13 25 25 47 28 50 3 3 32 59 64 125 32 66
62 127 67 135 5 8 12 22 15 30 3 8 10 22 15 30 5 8 12 22 15 30 10 25 55 123
70 153 8 16 14 37 14 47 0 9 7 23 15 30 8 7 15 19 15 26 0 14 3 22 33 82 9 19
17 42 17 52 0 9 7 23 15 30 8 7 15 22 15 34 0 11 7 30 15 40 8 11 15 30 15 42
0 13 4 25 9 28 5 3 12 22 15 41 4 19 11 35 16 35 6 0 10 12 10 28 0 15 7 36
15 46 8 11 15 27 15 37 0 9 7 30 15 45 8 16 15 39 15 51 0 12 5 25 10 28 6 3
10 16 10 29 0 12 7 31 15 42 8 10 15 30 15 44 0 14 7 36 15 50 8 14 14 36 15
51 0 14 4 29 9 35 10 10 27 70 40 142 4 24 13 48 19 54 7 7 12 29 12 51 0 21
5 48 12 60 7 12 16 51 20 87 4 36 14 112 22 170 27 187 16 689 -15 724 -5 6
-9 30 -9 55 0 26 -7 59 -15 75 -8 15 -15 42 -15 60 0 17 -7 40 -15 50 -8 11
-15 34 -15 52 0 18 -4 36 -10 39 -5 3 -10 14 -10 23 0 9 -7 30 -15 46 -8 15
-15 36 -15 46 0 10 -7 23 -15 30 -8 7 -15 19 -15 28 0 18 -88 200 -101 208 -5
3 -9 12 -9 19 0 13 -55 112 -69 125 -9 7 -30 42 -40 65 -5 11 -19 30 -30 42
-12 12 -21 25 -21 29 0 5 -47 68 -75 101 -5 6 -21 26 -35 44 -14 18 -34 43
-45 55 -11 13 -47 53 -80 90 -79 88 -204 211 -561 549 -92 88 -280 271 -416
408 -137 136 -251 247 -254 247 -3 0 -15 10 -27 23 -35 36 -135 110 -212 156
-38 23 -77 46 -85 51 -8 6 -22 13 -30 16 -8 3 -37 17 -63 30 -27 13 -57 24
-67 24 -10 0 -23 7 -30 15 -7 8 -23 15 -35 15 -13 0 -36 7 -51 15 -16 8 -41
15 -56 15 -15 0 -29 4 -32 9 -3 4 -33 11 -67 14 -34 3 -66 10 -72 16 -6 6 -43
11 -81 11 -39 0 -147 7 -241 15 -93 8 -198 15 -232 15 -34 0 -65 4 -68 10 -3
5 -28 12 -56 16 -27 4 -52 11 -55 15 -3 5 -16 9 -29 9 -13 0 -30 7 -39 15 -8
8 -21 15 -29 15 -8 0 -20 6 -26 14 -9 11 20 43 148 162 278 260 311 287 330
272 9 -8 30 -20 46 -27 17 -7 43 -19 58 -27 16 -8 45 -14 65 -14 20 0 56 -7
78 -15 33 -11 105 -14 347 -13 211 1 310 -2 319 -10 8 -6 37 -14 66 -18 29 -4
55 -11 58 -15 3 -5 15 -9 28 -9 12 0 31 -7 42 -15 10 -8 29 -15 40 -15 12 0
27 -7 34 -15 7 -8 19 -15 26 -15 13 0 50 -20 109 -58 11 -6 30 -16 43 -22 12
-5 22 -14 22 -20 0 -5 5 -10 11 -10 6 0 17 -6 24 -12 8 -7 20 -17 27 -23 67
-52 121 -99 191 -168 100 -98 193 -186 306 -287 46 -41 98 -88 116 -105 17
-16 64 -58 103 -93 39 -35 81 -73 94 -85 13 -12 64 -58 113 -102 48 -44 108
-99 132 -122 60 -58 77 -56 96 10 35 117 35 137 19 597 -15 401 -28 609 -41
643 -6 16 -11 58 -11 95 -1 39 -7 77 -15 92 -8 14 -14 53 -15 90 0 37 -4 70
-10 76 -5 5 -10 62 -11 127 -1 88 -4 121 -15 132 -12 12 -14 54 -10 257 5 267
16 411 34 445 7 12 12 41 12 65 0 24 7 52 15 62 8 11 15 36 15 55 0 20 7 45
15 55 8 11 15 30 15 43 0 13 4 31 9 41 22 43 41 94 41 110 0 9 7 26 15 36 8
11 15 28 15 38 0 10 5 18 10 18 6 0 10 9 10 19 0 11 7 26 15 35 8 8 15 21 15
29 0 8 7 20 15 27 8 7 15 20 15 30 0 10 7 23 15 30 8 7 15 16 15 21 0 5 11 27
25 49 14 22 25 47 25 55 0 9 7 18 15 21 8 4 15 12 15 19 0 7 7 15 15 19 8 3
15 13 15 22 0 9 11 27 25 40 14 13 25 28 25 33 0 6 14 24 30 41 17 17 30 33
30 35 0 3 25 30 55 60 30 31 55 63 55 71 0 8 7 14 15 14 8 0 15 7 15 15 0 8 5
15 10 15 6 0 10 7 10 15 0 8 7 15 16 15 8 0 12 5 9 10 -3 6 1 10 9 10 9 0 16
7 16 15 0 8 7 15 15 15 8 0 15 5 15 11 0 6 12 23 28 39 36 37 62 69 62 76 0 4
16 21 35 40 19 18 35 37 35 43 0 6 4 11 8 11 5 0 15 12 23 28 8 15 23 36 35
47 12 11 34 40 49 65 15 25 34 49 41 53 8 4 14 17 14 28 0 11 7 22 15 25 8 4
15 12 15 20 0 8 4 14 10 14 5 0 12 11 16 25 3 14 10 25 14 25 4 0 11 11 14 25
4 14 11 25 16 25 6 0 10 11 10 25 0 14 7 28 15 31 8 4 15 12 15 20 0 18 22 57
38 67 6 4 12 19 12 31 0 13 7 26 15 30 8 3 15 14 15 24 0 11 7 25 15 32 8 7
15 21 15 31 0 11 4 19 10 19 5 0 12 11 16 25 3 14 10 25 14 25 4 0 11 8 14 18
9 23 31 61 45 75 6 6 11 19 11 29 0 10 5 18 10 18 6 0 10 11 10 24 0 13 7 26
15 30 8 3 15 17 15 31 0 16 6 25 15 25 9 0 15 9 15 21 0 11 7 27 15 35 8 9 15
24 15 35 0 10 5 19 10 19 6 0 10 9 10 20 0 11 7 23 15 26 8 4 15 16 15 29 0
13 7 25 15 29 8 3 15 16 15 30 0 13 7 26 15 30 8 3 15 17 15 31 0 14 5 25 10
25 6 0 10 11 10 24 0 14 7 31 15 40 8 8 15 26 15 39 0 14 7 27 15 31 8 3 15
17 15 31 0 14 5 25 10 25 6 0 10 10 10 23 0 13 7 32 15 43 8 10 15 29 15 40 0
12 7 24 15 28 9 3 15 18 15 40 0 21 6 36 15 40 8 3 15 15 15 26 0 12 7 28 15
36 8 9 15 29 15 45 0 16 5 29 10 29 6 0 10 13 10 29 0 16 6 31 15 35 9 3 15
18 15 40 0 19 6 36 14 39 19 7 28 54 33 174 4 98 3 104 -21 136 -14 19 -26 39
-26 45 0 14 -61 77 -83 85 -9 3 -17 11 -17 17 0 5 -7 10 -15 10 -9 0 -18 7
-21 15 -4 8 -12 15 -20 15 -8 0 -14 4 -14 10 0 5 -11 12 -25 16 -14 3 -25 10
-25 15 0 5 -9 9 -19 9 -10 0 -21 7 -25 15 -3 8 -14 15 -25 15 -10 0 -21 7 -25
15 -3 9 -19 15 -41 15 -19 0 -35 5 -35 10 0 6 -20 10 -45 10 -31 0 -47 5 -51
15 -5 11 -21 15 -60 15 -35 0 -56 5 -61 14 -12 21 -120 27 -600 32 -281 3
-424 1 -428 -6z m-1197 -8452 c-17 -134 -27 -296 -22 -354 5 -48 3 -64 -10
-76 -11 -12 -16 -35 -16 -81 0 -44 -5 -68 -14 -76 -8 -7 -17 -39 -20 -74 -9
-113 -29 -237 -38 -237 -4 0 -8 -18 -8 -39 0 -46 -9 -73 -21 -65 -5 3 -9 -15
-9 -40 0 -25 -4 -46 -9 -46 -6 0 -13 -20 -17 -45 -3 -25 -10 -45 -14 -45 -4 0
-11 -27 -15 -60 -4 -33 -11 -60 -16 -60 -5 0 -9 -16 -9 -35 0 -22 -6 -38 -15
-41 -9 -4 -15 -19 -15 -35 0 -16 -4 -29 -9 -29 -5 0 -12 -18 -16 -40 -4 -22
-11 -40 -16 -40 -5 0 -9 -11 -9 -24 0 -13 -7 -29 -15 -36 -8 -7 -15 -23 -15
-35 0 -32 -10 -56 -21 -49 -5 3 -9 -10 -9 -28 0 -18 -7 -42 -15 -52 -8 -11
-15 -30 -15 -43 0 -13 -4 -23 -10 -23 -5 0 -10 -11 -10 -24 0 -13 -7 -29 -15
-36 -8 -7 -15 -23 -15 -36 0 -13 -4 -24 -8 -24 -7 0 -16 -18 -46 -90 -3 -8
-10 -22 -15 -30 -5 -8 -12 -22 -15 -30 -3 -8 -10 -22 -15 -30 -5 -8 -12 -22
-15 -30 -3 -8 -10 -22 -15 -30 -15 -24 -41 -87 -41 -99 0 -6 -4 -11 -10 -11
-5 0 -10 -6 -10 -14 0 -7 -7 -19 -15 -26 -8 -7 -15 -21 -15 -31 0 -11 -4 -19
-8 -19 -5 0 -18 -21 -30 -47 -28 -60 -44 -86 -59 -96 -7 -4 -13 -17 -13 -27 0
-11 -4 -20 -9 -20 -5 0 -12 -11 -15 -25 -4 -14 -11 -25 -16 -25 -6 0 -10 -9
-10 -20 0 -11 -7 -23 -15 -26 -8 -4 -15 -14 -15 -23 0 -9 -5 -22 -11 -28 -12
-12 -21 -27 -58 -97 -14 -25 -28 -46 -33 -46 -4 0 -8 -5 -8 -12 0 -6 -11 -26
-25 -44 -14 -18 -25 -36 -25 -39 0 -4 -13 -24 -30 -45 -16 -21 -30 -43 -30
-49 0 -6 -4 -11 -9 -11 -5 0 -12 -8 -16 -19 -3 -10 -16 -30 -28 -44 -29 -32
-46 -58 -53 -79 -4 -10 -9 -18 -13 -18 -4 0 -17 -18 -30 -40 -12 -22 -26 -40
-32 -40 -5 0 -9 -7 -9 -15 0 -8 -4 -15 -9 -15 -5 0 -13 -10 -17 -22 -3 -12
-12 -27 -18 -34 -26 -27 -54 -63 -86 -109 -35 -50 -55 -77 -77 -100 -7 -8 -13
-16 -13 -20 0 -4 -6 -12 -12 -19 -7 -7 -26 -30 -43 -51 -16 -21 -36 -44 -42
-51 -7 -7 -13 -16 -13 -20 0 -4 -10 -16 -22 -28 -13 -12 -35 -37 -49 -56 -15
-19 -41 -51 -58 -70 -17 -19 -31 -38 -31 -42 0 -5 -7 -8 -15 -8 -8 0 -15 -5
-15 -10 0 -6 -12 -23 -26 -38 -14 -15 -33 -39 -42 -54 -9 -16 -22 -28 -28 -28
-7 0 -14 -6 -16 -14 -3 -14 -78 -103 -145 -173 -24 -24 -43 -48 -43 -53 0 -6
-7 -10 -15 -10 -8 0 -15 -5 -15 -11 0 -19 -480 -509 -499 -509 -6 0 -11 -7
-11 -15 0 -8 -4 -15 -8 -15 -5 0 -61 -51 -124 -112 -64 -62 -142 -135 -173
-163 -31 -27 -77 -69 -101 -92 -25 -24 -47 -43 -50 -43 -3 0 -15 -11 -28 -25
-13 -14 -28 -25 -35 -25 -6 0 -11 -7 -11 -15 0 -8 -7 -15 -16 -15 -8 0 -13 -4
-10 -9 4 -5 -10 -19 -29 -31 -19 -12 -35 -26 -35 -31 0 -5 -5 -9 -10 -9 -6 0
-30 -20 -53 -45 -24 -25 -47 -45 -50 -45 -8 0 -54 -38 -76 -62 -8 -10 -20 -18
-25 -18 -5 0 -19 -11 -32 -25 -13 -14 -27 -25 -32 -25 -6 0 -12 -7 -16 -15 -3
-8 -10 -15 -16 -15 -5 0 -18 -8 -28 -17 -17 -17 -84 -73 -124 -103 -11 -8 -33
-27 -49 -42 -16 -16 -34 -28 -40 -28 -5 0 -12 -7 -15 -15 -4 -8 -10 -15 -15
-15 -9 0 -21 -8 -54 -37 -7 -7 -19 -13 -25 -13 -6 0 -13 -7 -16 -15 -4 -8 -12
-15 -19 -15 -7 0 -15 -7 -19 -15 -3 -8 -12 -15 -20 -15 -8 0 -16 -3 -18 -8 -4
-10 -84 -72 -92 -72 -4 0 -17 -11 -30 -25 -13 -14 -28 -25 -34 -25 -5 0 -12
-7 -16 -15 -3 -8 -12 -15 -20 -15 -7 0 -16 -7 -20 -15 -3 -8 -12 -15 -21 -15
-8 0 -15 -5 -15 -10 0 -6 -8 -14 -17 -17 -18 -7 -29 -15 -58 -40 -7 -7 -17
-13 -20 -13 -4 0 -24 -13 -45 -30 -21 -17 -41 -30 -45 -30 -3 0 -13 -7 -22
-15 -8 -8 -19 -13 -24 -9 -5 3 -8 0 -7 -7 2 -7 -6 -15 -17 -17 -11 -2 -24 -10
-28 -18 -4 -8 -15 -14 -23 -14 -8 0 -13 -4 -9 -9 3 -5 -5 -13 -17 -17 -13 -4
-30 -14 -38 -23 -17 -19 -76 -61 -85 -61 -6 0 -20 -11 -50 -37 -7 -7 -20 -13
-28 -13 -8 0 -17 -7 -21 -15 -3 -8 -12 -15 -20 -15 -7 0 -16 -7 -20 -15 -3 -8
-15 -15 -26 -15 -11 0 -20 -4 -20 -10 0 -5 -9 -10 -20 -10 -11 0 -20 -7 -20
-15 0 -8 -9 -15 -20 -15 -11 0 -20 -4 -20 -10 0 -5 -16 -16 -35 -25 -19 -9
-39 -23 -46 -31 -6 -8 -18 -14 -26 -14 -7 0 -16 -7 -19 -15 -4 -8 -12 -15 -20
-15 -8 0 -14 -4 -14 -10 0 -5 -11 -12 -25 -16 -14 -3 -22 -10 -19 -15 3 -5 -1
-9 -9 -9 -8 0 -20 -7 -27 -15 -7 -8 -21 -15 -31 -15 -11 0 -19 -7 -19 -15 0
-8 -9 -15 -19 -15 -10 0 -21 -7 -25 -15 -3 -8 -15 -15 -26 -15 -11 0 -20 -4
-20 -10 0 -5 -11 -12 -25 -16 -14 -3 -25 -10 -25 -15 0 -5 -9 -9 -19 -9 -10 0
-21 -7 -25 -15 -3 -8 -15 -15 -26 -15 -11 0 -20 -4 -20 -10 0 -5 -11 -12 -25
-16 -14 -3 -25 -9 -25 -14 0 -4 -17 -15 -37 -26 -21 -10 -44 -25 -51 -31 -7
-7 -20 -13 -28 -13 -8 0 -14 -4 -14 -8 0 -5 -20 -19 -45 -31 -24 -12 -47 -26
-50 -32 -4 -5 -15 -9 -26 -9 -10 0 -19 -4 -19 -9 0 -5 -10 -13 -22 -17 -13 -4
-25 -9 -28 -13 -9 -11 -71 -41 -85 -41 -7 0 -15 -7 -19 -15 -3 -8 -15 -15 -26
-15 -11 0 -20 -3 -20 -7 0 -11 -58 -43 -76 -43 -8 0 -17 -7 -20 -15 -4 -8 -14
-15 -24 -15 -10 0 -20 -7 -24 -15 -3 -8 -15 -15 -26 -15 -11 0 -20 -4 -20 -8
0 -7 -45 -30 -92 -45 -10 -4 -18 -11 -18 -17 0 -5 -11 -10 -24 -10 -13 0 -26
-7 -30 -15 -3 -8 -16 -15 -30 -15 -13 0 -26 -7 -30 -15 -3 -8 -15 -15 -26 -15
-11 0 -20 -4 -20 -10 0 -5 -8 -10 -19 -10 -10 0 -24 -7 -31 -15 -7 -8 -21 -15
-32 -15 -10 0 -16 -4 -13 -10 3 -5 -7 -13 -22 -16 -15 -4 -34 -13 -41 -21 -7
-7 -20 -13 -28 -13 -8 0 -14 -4 -14 -10 0 -5 -8 -10 -19 -10 -10 0 -24 -7 -31
-15 -7 -8 -23 -15 -35 -15 -13 0 -25 -7 -29 -15 -3 -8 -14 -15 -25 -15 -11 0
-23 -4 -26 -10 -3 -5 -15 -10 -25 -10 -10 0 -25 -7 -34 -15 -8 -8 -26 -15 -40
-15 -16 0 -26 -6 -26 -15 0 -9 -9 -15 -25 -15 -14 0 -25 -3 -25 -7 0 -10 -58
-43 -75 -43 -7 0 -18 -7 -25 -15 -7 -8 -20 -15 -30 -15 -10 0 -23 -7 -30 -15
-7 -8 -21 -15 -32 -15 -11 0 -26 -7 -34 -15 -9 -8 -26 -15 -39 -15 -13 0 -25
-4 -27 -10 -2 -5 -15 -11 -30 -12 -15 -1 -30 -8 -32 -15 -3 -7 -16 -13 -29
-13 -14 0 -30 -7 -37 -15 -7 -8 -21 -15 -31 -15 -11 0 -19 -4 -19 -10 0 -5
-11 -10 -25 -10 -14 0 -28 -7 -31 -15 -4 -8 -16 -15 -29 -15 -13 0 -25 -7 -29
-15 -3 -9 -18 -15 -35 -15 -16 0 -31 -6 -35 -15 -3 -9 -18 -15 -35 -15 -16 0
-31 -5 -33 -11 -2 -5 -19 -12 -38 -15 -19 -3 -36 -10 -38 -15 -2 -5 -16 -9
-32 -9 -15 0 -33 -7 -40 -15 -7 -8 -21 -15 -30 -15 -20 0 -83 -30 -88 -42 -2
-5 -14 -8 -27 -8 -12 0 -28 -7 -35 -15 -7 -8 -28 -15 -46 -15 -22 0 -33 -4
-32 -12 2 -8 -10 -14 -31 -16 -19 -2 -40 -10 -48 -18 -8 -8 -28 -14 -44 -14
-16 0 -29 -4 -29 -10 0 -5 -8 -10 -17 -10 -10 0 -31 -7 -47 -15 -15 -8 -36
-15 -46 -15 -20 0 -83 -30 -88 -42 -2 -5 -14 -8 -27 -8 -13 0 -30 -7 -39 -15
-8 -8 -28 -15 -44 -15 -17 0 -32 -6 -36 -15 -3 -9 -18 -15 -39 -15 -19 0 -40
-7 -47 -15 -7 -9 -29 -15 -50 -15 -21 0 -40 -5 -42 -11 -2 -5 -22 -13 -46 -16
-23 -3 -42 -10 -42 -14 0 -5 -8 -9 -19 -9 -10 0 -32 -7 -47 -15 -16 -8 -36
-15 -46 -15 -9 0 -18 -5 -20 -10 -2 -6 -21 -13 -43 -17 -22 -3 -42 -10 -45
-14 -3 -4 -24 -9 -48 -12 -23 -2 -48 -9 -54 -15 -7 -7 -31 -12 -54 -12 -25 0
-47 -6 -54 -15 -7 -9 -29 -15 -51 -15 -22 0 -39 -4 -39 -10 0 -5 -8 -10 -18
-10 -10 0 -27 -7 -38 -15 -10 -8 -36 -15 -57 -15 -24 0 -40 -5 -43 -15 -4 -10
-20 -15 -51 -15 -26 0 -51 -6 -59 -15 -9 -9 -34 -15 -60 -15 -27 0 -52 -6 -60
-15 -9 -8 -33 -15 -55 -15 -21 0 -39 -4 -39 -10 0 -5 -12 -10 -27 -10 -16 0
-37 -7 -47 -15 -11 -8 -39 -15 -62 -15 -23 0 -44 -5 -46 -12 -2 -6 -31 -13
-64 -16 -32 -3 -61 -8 -64 -13 -3 -4 -35 -11 -70 -14 -36 -3 -66 -10 -68 -16
-2 -5 -21 -9 -42 -9 -21 0 -40 -4 -42 -10 -2 -5 -25 -13 -53 -17 -27 -3 -56
-12 -63 -20 -9 -8 -39 -13 -89 -13 -42 0 -73 -3 -69 -7 4 -5 -34 -14 -86 -21
-155 -21 -168 -24 -168 -32 0 -11 -42 -19 -115 -21 -33 -2 -63 -7 -67 -13 -4
-6 -50 -12 -105 -14 -54 -2 -102 -8 -107 -13 -6 -5 -36 -9 -67 -9 -41 0 -58
-4 -63 -15 -4 -12 -28 -15 -126 -15 -67 0 -119 -4 -116 -9 7 -11 -52 -21 -126
-21 -32 0 -58 -4 -58 -9 0 -5 -98 -12 -217 -16 -120 -3 -229 -10 -243 -15 -21
-8 -329 -18 -590 -21 -184 -1 -687 14 -702 22 -9 5 -54 10 -100 11 l-83 1 65
7 c36 4 118 8 182 9 89 1 117 4 115 13 -1 10 37 14 162 16 91 1 170 7 177 13
6 5 43 12 80 16 38 3 71 10 74 14 3 4 57 11 120 15 63 3 120 10 125 14 6 5 33
9 60 11 28 1 67 8 89 16 21 7 65 13 96 13 38 0 60 4 62 12 3 9 34 14 94 17 49
2 92 7 95 13 3 5 31 12 63 15 31 3 59 10 62 14 3 5 27 9 53 9 31 0 53 5 61 15
8 10 31 15 70 15 32 0 71 7 86 15 16 8 55 15 87 15 31 0 57 4 57 9 0 5 20 12
45 15 24 4 47 11 50 17 4 5 26 9 49 9 27 0 48 6 56 15 8 10 31 15 67 15 35 0
60 5 69 15 10 10 35 15 70 15 30 0 54 4 54 10 0 5 17 12 38 15 50 9 102 25
134 41 14 8 42 14 61 14 20 0 37 4 39 10 2 5 26 13 53 16 28 4 52 11 55 15 3
5 29 9 57 10 33 1 54 7 57 16 3 7 20 13 41 13 19 0 35 4 35 9 0 5 16 12 35 15
19 4 35 11 35 15 0 5 22 11 50 15 28 4 50 11 50 16 0 6 17 10 39 10 22 0 44 6
51 15 7 9 29 15 55 15 26 0 48 6 55 15 7 8 28 15 46 15 19 0 34 5 34 10 0 6
10 10 23 10 13 0 32 7 43 15 10 8 33 15 50 15 19 0 34 6 38 15 4 10 20 15 51
15 26 0 44 4 41 9 -6 10 26 21 62 21 12 0 22 4 22 9 0 5 17 12 38 16 20 4 42
10 47 15 6 4 24 10 40 12 17 1 36 9 43 16 7 6 22 12 33 12 10 0 19 4 19 9 0 5
16 12 35 15 19 4 35 11 35 16 0 6 13 10 29 10 16 0 34 7 41 15 7 8 27 15 45
15 18 0 38 7 45 15 7 8 26 15 42 15 16 0 36 7 44 15 9 8 29 15 45 15 16 0 29
5 29 10 0 6 10 10 23 10 12 0 31 7 41 15 11 8 28 15 38 15 10 0 18 4 18 9 0 5
14 13 32 16 17 4 38 14 46 21 7 8 24 14 37 14 13 0 27 4 30 10 3 5 19 10 34
10 16 0 34 7 41 15 7 8 23 15 37 15 13 0 31 7 39 15 9 8 29 15 45 15 18 0 28
4 24 10 -6 9 -1 11 38 14 6 1 18 7 25 14 7 6 22 12 33 12 10 0 19 4 19 10 0 5
12 13 27 16 15 4 34 13 41 21 7 7 24 13 38 13 13 0 24 5 24 10 0 6 11 10 24
10 14 0 31 7 40 15 8 8 26 15 39 15 14 0 30 7 37 15 7 8 26 15 42 15 16 0 27
4 24 9 -7 10 17 21 45 21 10 0 19 5 19 10 0 6 11 10 24 10 13 0 26 7 30 15 3
8 16 15 30 15 13 0 26 7 30 15 3 8 14 15 25 15 11 0 22 4 26 9 3 5 19 12 35
16 17 4 30 11 30 16 0 5 11 9 24 9 13 0 29 7 36 15 7 8 23 15 35 15 13 0 25 7
29 15 3 8 16 15 29 15 14 0 30 7 37 15 7 8 18 15 24 15 12 0 118 51 126 61 3
3 17 9 33 13 15 3 27 11 27 16 0 6 8 10 19 10 10 0 24 7 31 15 7 8 23 15 35
15 13 0 25 7 29 15 3 8 17 15 31 15 14 0 25 4 25 9 0 5 10 13 23 16 24 7 123
52 147 66 8 5 23 12 33 15 9 4 17 10 17 15 0 5 9 9 20 9 11 0 23 7 26 15 4 8
16 15 29 15 13 0 25 7 29 15 3 8 16 15 30 15 13 0 26 7 30 15 3 8 16 15 30 15
13 0 26 3 28 8 5 12 68 42 88 42 10 0 20 7 24 15 3 8 14 15 25 15 10 0 21 7
25 15 3 8 15 15 26 15 11 0 20 5 20 10 0 6 9 10 19 10 10 0 21 7 25 15 3 8 13
15 21 15 9 0 23 7 31 15 9 8 24 15 35 15 11 0 18 4 15 9 -4 5 7 12 24 16 16 4
30 10 30 15 0 4 11 11 25 14 14 4 25 11 25 16 0 6 11 10 24 10 13 0 26 7 30
15 3 8 14 15 25 15 10 0 21 7 25 15 3 8 14 15 25 15 11 0 21 3 23 8 2 4 33 23
71 42 37 19 67 38 67 42 0 4 6 8 14 8 7 0 19 7 26 15 7 8 20 15 30 15 10 0 20
7 24 15 3 8 14 15 25 15 10 0 21 7 25 15 3 8 15 15 26 15 11 0 20 4 20 9 0 5
11 12 25 15 14 4 25 11 25 16 0 6 8 10 18 10 10 0 23 5 29 11 14 14 52 36 76
45 9 3 17 10 17 15 0 5 9 9 20 9 11 0 20 5 20 10 0 6 10 15 23 20 32 14 71 40
102 68 7 6 18 12 23 12 5 0 15 7 22 15 7 8 20 15 30 15 10 0 20 7 24 15 3 8
12 15 20 15 7 0 16 7 20 15 3 8 15 15 26 15 11 0 20 5 20 10 0 6 6 10 14 10 7
0 19 7 26 15 7 8 20 15 30 15 10 0 20 7 24 15 3 8 12 15 21 15 8 0 15 4 15 10
0 5 11 12 25 16 14 3 25 10 25 15 0 5 6 9 14 9 8 0 16 3 18 8 2 4 30 25 63 47
33 22 61 43 63 48 2 4 12 7 22 7 10 0 20 7 24 15 3 8 12 15 21 15 15 0 25 6
60 38 7 6 18 12 23 12 5 0 15 7 22 15 7 8 21 15 31 15 11 0 19 7 19 15 0 8 9
15 19 15 10 0 21 7 25 15 3 8 12 15 21 15 8 0 15 4 15 9 0 5 8 11 18 15 24 8
52 27 78 54 11 12 29 22 38 22 9 0 16 7 16 15 0 8 6 15 14 15 7 0 19 7 26 15
7 8 21 15 32 15 11 0 16 5 13 11 -4 6 2 13 14 16 12 3 21 8 21 12 0 4 17 15
38 26 20 11 41 25 45 32 4 7 13 13 18 13 6 0 16 6 23 13 8 6 24 19 36 27 12 8
28 21 36 28 7 6 17 12 23 12 6 0 11 3 11 8 0 4 18 18 40 32 22 13 40 28 40 32
0 4 6 8 14 8 8 0 16 7 20 15 3 8 12 15 21 15 8 0 15 4 15 8 0 5 25 26 55 47
30 20 55 41 55 46 0 5 4 9 10 9 13 0 100 62 100 72 0 4 6 8 14 8 8 0 33 18 56
40 23 22 47 40 54 40 6 0 18 8 27 18 8 9 30 28 48 42 18 14 39 31 46 38 8 6
18 12 24 12 6 0 11 7 11 15 0 8 6 15 13 15 6 0 26 13 44 28 48 41 95 77 106
81 6 2 22 16 36 30 14 15 44 40 66 56 45 33 80 62 107 88 10 9 23 17 28 17 6
0 10 7 10 15 0 8 5 15 10 15 6 0 21 11 34 25 13 14 29 25 35 25 6 0 14 7 17
15 4 8 12 15 20 15 8 0 14 7 14 15 0 8 5 15 10 15 6 0 18 8 28 18 10 9 38 33
61 52 42 34 64 54 150 133 22 20 45 37 51 37 5 0 10 7 10 15 0 8 7 15 15 15 8
0 15 7 15 15 0 8 4 15 9 15 5 0 28 18 50 40 22 22 42 40 45 40 3 0 37 32 76
70 39 39 73 70 75 70 3 0 52 47 110 105 58 58 110 105 115 105 6 0 10 5 10 10
0 6 86 96 190 201 105 105 190 192 190 195 0 5 77 87 168 181 28 29 52 57 52
61 0 4 25 34 56 67 31 33 72 80 92 104 21 24 46 53 57 66 11 12 36 41 55 65
19 24 43 52 53 62 9 10 17 20 17 23 0 3 11 18 25 33 14 15 25 33 25 40 0 7 7
15 15 18 8 4 15 11 15 16 0 6 10 20 23 32 12 11 38 41 57 66 19 25 38 47 42
48 5 2 8 8 8 14 0 5 6 15 13 23 28 30 47 56 47 65 0 6 7 10 15 10 8 0 15 6 15
14 0 8 3 16 8 18 4 2 25 30 47 63 22 33 42 62 45 65 3 3 14 22 25 43 11 20 23
37 27 37 5 0 8 6 8 13 0 8 13 27 30 43 16 16 30 37 30 46 0 9 3 18 8 20 15 7
89 111 98 141 4 9 10 17 15 17 5 0 9 6 9 14 0 8 6 21 14 28 7 8 17 24 20 36 4
12 12 22 17 22 5 0 9 9 9 20 0 11 4 20 9 20 5 0 13 10 16 23 4 12 17 36 29 52
13 17 26 37 29 45 4 8 16 29 27 45 11 17 23 38 26 48 4 9 10 17 15 17 5 0 9 8
9 19 0 10 7 24 15 31 8 7 15 21 15 31 0 11 4 19 8 19 5 0 19 25 33 55 13 30
27 55 32 55 4 0 7 9 7 19 0 11 7 26 15 35 8 8 15 23 15 34 0 11 7 22 15 26 8
3 15 15 15 26 0 11 5 20 10 20 6 0 10 11 10 25 0 14 7 28 15 31 8 4 15 16 15
29 0 12 7 28 15 35 8 7 15 20 15 30 0 10 7 23 15 30 8 7 13 15 11 19 -3 4 4
26 15 50 10 24 19 52 19 62 0 10 5 19 10 19 6 0 10 11 10 24 0 14 7 31 15 40
8 8 15 26 15 39 0 14 7 30 15 37 8 7 15 23 15 36 0 13 4 24 9 24 5 0 11 18 15
40 3 22 11 40 16 40 6 0 10 15 10 34 0 18 7 39 15 46 8 7 15 27 15 46 0 18 6
39 13 46 7 7 14 33 16 58 1 25 7 47 12 48 5 2 9 23 9 47 0 25 6 50 15 59 9 8
15 33 15 56 0 23 6 48 15 56 8 9 15 32 15 52 1 20 7 64 15 97 8 33 15 77 15
98 0 20 4 37 8 37 5 0 5 -28 0 -62z"/>
</g>
</svg>
