<?xml version="1.0" standalone="no"?>
<!DOCTYPE svg PUBLIC "-//W3C//DTD SVG 20010904//EN"
 "http://www.w3.org/TR/2001/REC-SVG-20010904/DTD/svg10.dtd">
<svg version="1.0" xmlns="http://www.w3.org/2000/svg"
 width="512.000000pt" height="512.000000pt" viewBox="0 0 512.000000 512.000000"
 preserveAspectRatio="xMidYMid meet">

<g transform="translate(0.000000,512.000000) scale(0.100000,-0.100000)"
fill="white" stroke="none">
<path d="M3490 5094 c-48 -22 -209 -179 -1222 -1192 -970 -970 -1171 -1175
-1190 -1217 -26 -58 -31 -166 -9 -230 11 -33 224 -251 1195 -1224 955 -957
1191 -1188 1231 -1207 38 -18 67 -24 120 -24 107 0 156 28 292 164 131 131
157 176 158 276 0 136 68 60 -1014 1142 l-976 978 972 972 c1071 1071 1016
1010 1016 1138 0 102 -25 146 -161 284 -140 141 -182 166 -287 166 -54 0 -83
-6 -125 -26z"/>
</g>
</svg>
