<?xml version="1.0" standalone="no"?>
<!DOCTYPE svg PUBLIC "-//W3C//DTD SVG 20010904//EN"
 "http://www.w3.org/TR/2001/REC-SVG-20010904/DTD/svg10.dtd">
<svg version="1.0" xmlns="http://www.w3.org/2000/svg"
 width="320.000000pt" height="412.000000pt" viewBox="0 0 320.000000 412.000000"
 preserveAspectRatio="xMidYMid meet">

<g transform="translate(0.000000,412.000000) scale(0.100000,-0.100000)"
fill="white" stroke="none">
<path d="M1490 4114 c-215 -40 -368 -116 -502 -248 -160 -158 -243 -347 -255
-576 -21 -417 246 -774 663 -886 96 -26 312 -26 408 0 342 92 582 344 652 686
21 107 15 281 -15 387 -87 305 -319 533 -626 615 -68 18 -271 32 -325 22z"/>
<path d="M1400 2285 c-366 -58 -707 -273 -960 -605 -261 -343 -412 -778 -436
-1258 l-7 -128 31 -35 c185 -211 1383 -322 2347 -218 426 46 715 125 797 218
l31 35 -7 128 c-49 973 -632 1746 -1406 1863 -116 18 -276 18 -390 0z"/>
</g>
</svg>
