<?xml version="1.0" standalone="no"?>
<!DOCTYPE svg PUBLIC "-//W3C//DTD SVG 20010904//EN"
 "http://www.w3.org/TR/2001/REC-SVG-20010904/DTD/svg10.dtd">
<svg version="1.0" xmlns="http://www.w3.org/2000/svg"
 width="840.000000pt" height="678.000000pt" viewBox="0 0 840.000000 678.000000"
 preserveAspectRatio="xMidYMid meet">

<g transform="translate(0.000000,678.000000) scale(0.100000,-0.100000)"
fill="#000000" stroke="none">
<path d="M3280 6369 c-543 -60 -1017 -282 -1391 -650 -361 -356 -584 -798
-666 -1319 -24 -158 -24 -498 0 -660 113 -737 544 -1350 1197 -1702 214 -115
473 -200 745 -244 156 -26 526 -26 680 -1 281 47 542 133 762 253 l84 46 72
-68 c40 -38 388 -376 774 -752 386 -375 728 -705 760 -733 221 -194 532 -184
738 25 191 192 218 472 69 701 -19 29 -364 371 -832 824 l-800 774 35 61 c133
233 224 489 274 771 26 153 36 435 20 600 -94 970 -780 1774 -1717 2011 -71
18 -177 40 -235 49 -125 19 -451 27 -569 14z m447 -934 c404 -66 766 -318 976
-680 242 -417 240 -950 -5 -1370 -98 -167 -266 -345 -423 -451 -227 -151 -447
-222 -715 -231 -238 -8 -432 29 -630 123 -398 188 -684 551 -777 984 -25 120
-25 410 0 530 121 565 560 991 1127 1094 103 19 334 19 447 1z"/>
</g>
</svg>
